# xmcd
#
# Track frame offsets:
#	150
#	15848
#	27422
#	41762
#
# Disc length: 822 seconds
# Revision: 0
# Processed by: cddbd v1.5.2PL0 Copyright (c) Steve Scherf et al.
# Submitted via: dBpowerAMP V12.0
#
DISCID=24033404
DTITLE=Robert Vincent - Life In Easy Steps - CD2 - More Steps
DYEAR=2013
DGENRE=Country
TTITLE0=The Bomb
TTITLE1=Denial
TTITLE2=I'm Still Here
TTITLE3=How Do You Sleep
EXTD=
EXTT0=
EXTT1=
EXTT2=
EXTT3=
PLAYORDER=
